<svg width="12" height="3" viewBox="0 0 12 3" fill="none" xmlns="http://www.w3.org/2000/svg">
<path d="M1.36364 0C0.613636 0 0 0.613636 0 1.36364C0 2.11364 0.613636 2.72727 1.36364 2.72727C2.11364 2.72727 2.72727 2.11364 2.72727 1.36364C2.72727 0.613636 2.11364 0 1.36364 0Z" fill="#CDCDCD"/>
<path d="M10.6364 0C9.88636 0 9.27273 0.613636 9.27273 1.36364C9.27273 2.11364 9.88636 2.72727 10.6364 2.72727C11.3864 2.72727 12 2.11364 12 1.36364C12 0.613636 11.3864 0 10.6364 0Z" fill="#CDCDCD"/>
<path d="M4.63636 1.36364C4.63636 0.613636 5.25 0 6 0C6.75 0 7.36364 0.613636 7.36364 1.36364C7.36364 2.11364 6.75 2.72727 6 2.72727C5.25 2.72727 4.63636 2.11364 4.63636 1.36364Z" fill="#CDCDCD"/>
</svg>
